# xmcd
#
# Track frame offsets: 
#        150
#        61936
#        102838
#        137391
#        155572
#        182230
#        202212
#
# Disc length: 3192 seconds
#
# Revision: 1
# Processed by: cddbd v1.5.2PL0 Copyright (c) Steve Scherf et al.
# Submitted via: ExactAudioCopy v1.3
#
DISCID=5f0c7607
DTITLE=Pendragon - Pure
DYEAR=2008
DGENRE=Progressive Rock
TTITLE0=Indigo
TTITLE1=Eraserhead
TTITLE2=Comatose I. View From The Seashore
TTITLE3=Comatose II. Space Cadet
TTITLE4=Comatose III. Home And Dry
TTITLE5=The Freak Show
TTITLE6=It’s Only Me
EXTD=
EXTT0=
EXTT1=
EXTT2=
EXTT3=
EXTT4=
EXTT5=
EXTT6=
PLAYORDER=
